# xmcd
#
# Track frame offsets:
#	150
#	1352
#	17182
#	28490
#	42796
#	58430
#	71765
#	85005
#	97250
#	116855
#	130691
#	146640
#	160634
#	176544
#	193714
#	207235
#
# Disc length: 2787 seconds
#
# Revision: 0
# Processed by: cddbd v1.4PL0 Copyright (c) Steve Scherf et al.
# Submitted via: dBpowerAMP V4.0
#
DISCID=e90ae110
DTITLE=Los Nuevos Cadetes De Pepe Linares - En Vivo
DYEAR=2002
DGENRE=Norteño
TTITLE0=Presentacion
TTITLE1=Palomo El  X-1
TTITLE2=Tu Vida No Me Importa
TTITLE3=Jesus Malverde
TTITLE4=Llevale Esta Carta A Esther
TTITLE5=Dos Coronas A Mi Madre
TTITLE6=Una Pagina Mas
TTITLE7=Rico Sin Amor
TTITLE8=El Corrido De Los Perez
TTITLE9=El Viejo Era Cabron
TTITLE10=Piquetitos De dolor
TTITLE11=El Rogon
TTITLE12=La Entalladita
TTITLE13=Angelita
TTITLE14=Guadalupe Estrada 
TTITLE15=Final
EXTD=
EXTT0=
EXTT1=
EXTT2=
EXTT3=
EXTT4=
EXTT5=
EXTT6=
EXTT7=
EXTT8=
EXTT9=
EXTT10=
EXTT11=
EXTT12=
EXTT13=
EXTT14=
EXTT15=
PLAYORDER=
